# AST/ASF file generated using VICON BodyLanguage
# -----------------------------------------------
:version 1.10
:name VICON
:units
  mass 1.0
  length 0.45
  angle deg
:documentation
   .ast/.asf automatically generated from VICON data using
   VICON BodyBuilder and BodyLanguage model FoxedUp or BRILLIANT.MOD
:root
   order TX TY TZ RX RY RZ
   axis XYZ
   position 0 0 0  
   orientation 0 0 0 
:bonedata
  begin
     id 1 
     name lhipjoint
     direction 0.543289 -0.788407 0.288535 
     length 2.57127 
     axis 0 0 0  XYZ
  end
  begin
     id 2 
     name lfemur
     direction 0.34202 -0.939693 0  
     length 8.47298  
     axis 0 0 20  XYZ
    dof rx ry rz
    limits (-160.0 20.0)
           (-70.0 70.0)
           (-60.0 70.0)
  end
  begin
     id 3 
     name ltibia
     direction 0.34202 -0.939693 0   
     length 8.13367   
     axis 0 0 20   XYZ
    dof rx
    limits (-10.0 170.0)
  end
  begin
     id 4 
     name lfoot
     direction 0.114037 -0.313314 0.942778   
     length 2.67113   
     axis -90 7.62852e-016 20   XYZ
    dof rx rz
    limits (-45.0 90.0)
           (-70.0 20.0)
  end
  begin
     id 5 
     name ltoes
     direction 1.536e-011 -4.21847e-011 1   
     length 1.32217   
     axis -90 7.62852e-016 20   XYZ
    dof rx
    limits (-90.0 20.0)
  end
  begin
     id 6 
     name rhipjoint
     direction -0.571293 -0.770752 0.282074   
     length 2.63017  
     axis 0 0 0  XYZ 
  end
  begin
     id 7 
     name rfemur
     direction -0.34202 -0.939693 0   
     length 8.60885   
     axis 0 0 -20   XYZ
    dof rx ry rz
    limits (-160.0 20.0)
           (-70.0 70.0)
           (-70.0 60.0)
  end
  begin
     id 8 
     name rtibia
     direction -0.34202 -0.939693 0   
     length 8.07673   
     axis 0 0 -20   XYZ
    dof rx
    limits (-10.0 170.0)
 end
 begin
     id 9 
     name rfoot
     direction -0.121336 -0.333368 0.934956   
     length 2.81602  
     axis -90 -7.62852e-016 -20   XYZ
    dof rx rz
    limits (-45.0 90.0)
           (-20.0 70.0)
  end
  begin
     id 10 
     name rtoes
     direction -1.53491e-011 -4.21808e-011 1   
     length 1.38905   
     axis -90 -7.62852e-016 -20   XYZ
    dof rx
    limits (-90.0 20.0)
  end
  begin
     id 11 
     name lowerback
     direction 0.0136776 0.999869 -0.00861835   
     length 2.14087   
     axis 0 0 0   XYZ
    dof rx ry rz
    limits (-20.0 45.0)
           (-30.0 30.0)
           (-30.0 30.0)
  end
  begin
     id 12 
     name upperback
     direction -0.00789158 0.999804 0.0181308   
     length 2.14151   
     axis 0 0 0   XYZ
    dof rx ry rz
    limits (-20.0 45.0)
           (-30.0 30.0)
           (-30.0 30.0)
  end
  begin
     id 13 
     name thorax
     direction -0.0135231 0.999666 0.0220247   
     length 2.13644   
     axis 0 0 0   XYZ
    dof rx ry rz
    limits (-20.0 45.0)
           (-30.0 30.0)
           (-30.0 30.0)
  end
  begin
     id 14 
     name lowerneck
     direction -0.0392259 0.997317 0.0618018   
     length 1.65045   
     axis 0 0 0   XYZ
    dof rx ry rz
    limits (-20.0 45.0)
           (-30.0 30.0)
           (-30.0 30.0)
  end
  begin
     id 15 
     name upperneck
     direction 0.0765547 0.994276 -0.0745319   
     length 1.66045   
     axis 0 0 0   XYZ
    dof rx ry rz
    limits (-20.0 45.0)
           (-30.0 30.0)
           (-30.0 30.0)
  end
  begin
     id 16
     name head
     direction 0.0241564 0.999031 -0.036785  
     length 1.66594  
     axis 0 0 0   XYZ
    dof rx ry rz
    limits (-20.0 45.0)
           (-30.0 30.0)
           (-30.0 30.0)
  end
  begin
     id 17 
     name lclavicle
     direction 0.967398 0.249018 0.0461573  
     length 3.75176  
     axis 0 0 0   XYZ
    dof ry rz
    limits (-20.0 10.0)
           (0.0 20.0)
  end
  begin
     id 18 
     name lhumerus
     direction 1 -4.48963e-011 -3.05005e-027   
     length 5.93342   
     axis 180 -30 -90   XYZ
    dof rx ry rz
    limits (-60.0 90.0)
           (-90.0 90.0)
           (-90.0 90.0)
  end
  begin
     id 19
     name lradius
     direction 1 -4.48957e-011 1.07006e-026   
     length 3.94763   
     axis 180 -30 -90   XYZ
    dof rx
    limits (-10.0 170.0)
  end
  begin
     id 20
     name lwrist
     direction 1 -4.48978e-011 1.92422e-026   
     length 1.97382   
     axis -1.18182e-014 90 90   XYZ
    dof ry
    limits (-180.0 0.0)
 end
  begin
     id 21 
     name lhand
     direction 1 -4.48931e-011 3.84844e-026   
     length 0.560187   
     axis -2.45563e-014 90 90   XYZ
    dof rx rz
    limits (-90.0 90.0)
           (-45.0 45.0)
  end
  begin
     id 22 
     name lfingers
     direction 1 -4.48952e-011 7.69687e-026   
     length 0.451637   
     axis -4.91126e-014 90 90   XYZ
    dof rx
    limits (0.0 90.0)
  end
  begin
     id 23
     name lthumb
     direction 0.707107 -6.34901e-011 0.707107   
     length 0.648463   
     axis -90 45 2.85299e-015   XYZ
    dof rx rz
    limits (-45.0 45.0)
           (-45.0 45.0)
  end
  begin
     id 24 
     name rclavicle
     direction -0.965946 0.258716 0.00371831   
     length 3.63667  
     axis 0 0 0   XYZ 
    dof ry rz
    limits (-10.0 20.0)
           (-20.0 0.0)
  end
  begin
     id 25 
     name rhumerus
     direction -1 -4.48966e-011 -1.78361e-028  
     length 6.28647   
     axis 180 30 90   XYZ
    dof rx ry rz
    limits (-90.0 60.0)
           (-90.0 90.0)
           (-90.0 90.0)
  end
  begin
     id 26 
     name rradius
     direction -1 -4.48961e-011 1.05248e-026   
     length 3.81645   
     axis 180 30 90   XYZ
    dof rx
    limits (-10.0 170.0)
  end
  begin
     id 27 
     name rwrist
     direction -1 -4.48979e-011 1.92422e-026   
     length 1.90822   
     axis -1.18182e-014 -90 -90   XYZ
    dof ry
    limits (-180.0 0.0)
  end
  begin
     id 28
     name rhand
     direction -1 -4.48937e-011 3.84844e-026   
     length 0.646185   
     axis -2.45563e-014 -90 -90   XYZ
    dof rx rz
    limits (-90.0 90.0)
           (-45.0 45.0)
  end
  begin
     id 29
     name rfingers
     direction -1 -4.48953e-011 7.69687e-026   
     length 0.520971   
     axis -4.91126e-014 -90 -90   XYZ
    dof rx
    limits (0.0 90.0)
  end
  begin
     id 30
     name rthumb
     direction -0.707107 -6.3494e-011 0.707107   
     length 0.748013   
     axis -90 -45 -2.85299e-015   XYZ
    dof rx rz
    limits (-45.0 45.0)
           (-45.0 45.0)
  end
:hierarchy
  begin
    root lhipjoint rhipjoint lowerback
    lhipjoint lfemur
    lfemur ltibia
    ltibia lfoot
    lfoot ltoes
    rhipjoint rfemur
    rfemur rtibia
    rtibia rfoot
    rfoot rtoes
    lowerback upperback
    upperback thorax
    thorax lowerneck lclavicle rclavicle
    lowerneck upperneck
    upperneck head
    lclavicle lhumerus
    lhumerus lradius
    lradius lwrist
    lwrist lhand lthumb
    lhand lfingers
    rclavicle rhumerus
    rhumerus rradius
    rradius rwrist
    rwrist rhand rthumb
    rhand rfingers
  end

#!OML:ASF H:\HAZMAT1\Patient Classification 1\Patient 3\Session 1\dancer.ASF
:FULLY-SPECIFIED
:DEGREES
31
upperback -6.544000 -3.853550 -0.930885
rfoot -32.418598 -25.885900
lradius 41.989101
lthumb 8.207310 51.239300
rradius 49.505798
lwrist 33.206200
rhand -22.118200 -29.692301
rhumerus 19.549299 -66.432098 -14.456200
lowerneck -1.308950 -1.108010 -0.250865
lhand -18.065300 21.418699
ltibia 57.621300
head -6.085690 0.448587 1.632830
rwrist -55.342701
lfingers 7.125020
rtoes -4.542370
lowerback -2.718290 -3.111950 4.494410
rfingers 7.125020
lclavicle -0.000000 -0.000000
upperneck -20.800100 0.655022 5.252170
rfemur -11.026100 -20.012300 23.792500
thorax -5.660320 -2.045900 -3.393420
rclavicle -0.000000 -0.000000
rtibia 48.433899
lfoot -22.021700 7.165900
lhumerus 51.308399 65.503502 41.798901
rthumb 4.294640 -59.628799
root 8.790680 18.537800 5.482130 179.979996 38.561798 -178.289001
ltoes -2.311680
lfemur -21.867399 7.211480 -15.167900
32
upperback -6.252500 -3.500180 -0.062843
rfoot -34.542801 -16.233999
lradius 40.980999
lthumb 6.955480 49.769100
rradius 50.190899
lwrist 31.528799
rhand -22.530300 -23.081699
rhumerus 50.658699 -64.675697 -62.166901
lowerneck -0.774447 -0.691421 0.213897
lhand -19.362200 19.903400
ltibia 59.948101
head -6.797790 0.830356 1.271770
rwrist -50.978001
lfingers 7.125020
rtoes -1.534640
lowerback 0.382740 -2.941480 5.154840
rfingers 7.125020
lclavicle -0.000000 -0.000000
upperneck -22.662701 1.355530 4.472620
rfemur -26.090200 -25.847500 24.007999
thorax -7.081620 -1.930230 -2.718070
rclavicle -0.000000 -0.000000
rtibia 61.703800
lfoot -29.463301 8.041660
lhumerus 61.758801 60.287102 66.984596
rthumb 3.896640 -53.025799
root 7.399950 18.004299 6.015970 184.735992 40.500999 -177.406006
ltoes 11.157500
lfemur -30.686501 11.594500 -20.891100
33
upperback -6.295740 -2.751030 -0.680554
rfoot -16.576200 -24.646799
lradius 41.310001
lthumb 14.237800 50.443298
rradius 48.624901
lwrist 33.195801
rhand -28.059200 -26.340700
rhumerus -20.671900 -29.555700 -59.635799
lowerneck -2.052850 -1.210300 0.915572
lhand -11.812300 20.951300
ltibia 62.734001
head -1.885120 -0.616904 0.671696
rwrist -45.380600
lfingers 7.125020
rtoes 4.904810
lowerback -0.539723 -2.334130 4.865480
rfingers 7.125020
lclavicle 0.000000 0.000000
upperneck -7.209750 -1.264170 2.609920
rfemur -10.140500 -32.197899 13.399300
thorax -6.542230 -1.543370 -3.296920
rclavicle 0.000000 0.000000
rtibia 71.845001
lfoot -25.846100 4.360480
lhumerus -7.275670 23.262501 63.530602
rthumb -1.443080 -56.315498
root 6.321390 17.660900 7.172800 185.970001 37.581799 -175.250000
ltoes 14.450700
lfemur -39.039398 15.715800 -21.390499
34
upperback -5.624090 0.566496 -2.448460
rfoot -29.427799 -23.186800
lradius 12.980300
lthumb 26.922501 48.627701
rradius 16.662800
lwrist -29.310499
rhand -26.480600 -23.273001
rhumerus -83.514000 -19.948700 -53.773800
lowerneck -9.276190 -1.108540 1.022520
lhand 1.391510 20.525299
ltibia 62.630798
head 2.551650 -0.681410 0.944197
rwrist 25.682199
lfingers 7.125020
rtoes -25.709499
lowerback -3.439640 0.312211 5.407710
rfingers 7.125020
lclavicle -0.000000 0.000000
upperneck 2.857280 -1.725910 3.749520
rfemur 12.524700 -18.335199 12.734700
thorax -3.846720 0.121732 -5.597660
rclavicle -0.000000 0.000000
rtibia 39.740002
lfoot -21.007500 5.869960
lhumerus -80.762802 18.085100 44.866901
rthumb 0.081552 -53.252701
root 5.829780 17.497400 8.509250 185.369995 42.486401 -176.498001
ltoes 17.074699
lfemur -44.002201 17.326599 -21.523199
35
upperback -1.203730 1.380530 -1.531420
rfoot -37.754700 -22.633301
lradius 12.487000
lthumb 23.483101 62.056499
rradius 15.068100
lwrist -30.406900
rhand -18.573799 -32.823200
rhumerus -86.819603 -1.711370 -29.555401
lowerneck -8.003270 -0.028813 1.950220
lhand -2.198360 33.469799
ltibia 49.358898
head 0.549109 0.083276 0.473616
rwrist 19.752300
lfingers 7.125020
rtoes -2.194920
lowerback -0.634172 1.037180 8.512610
rfingers 7.125020
lclavicle -0.000000 -0.000000
upperneck -2.501680 -0.028841 2.595770
rfemur 0.190886 -19.749800 23.104601
thorax -0.657922 0.623671 -6.379090
rclavicle -0.000000 -0.000000
rtibia 33.314899
lfoot -0.857643 16.209700
lhumerus -85.079399 2.995240 13.770400
rthumb 7.716570 -62.662399
root 4.355450 18.060101 11.295000 191.679001 46.482800 -172.987000
ltoes 16.968300
lfemur -51.081402 11.971700 -14.791100
36
upperback 2.935160 -1.181150 -1.486260
rfoot -35.099899 -20.312099
lradius 14.295600
lthumb 17.649200 58.290199
rradius 16.743601
lwrist -27.114100
rhand -16.964300 -27.967699
rhumerus -47.406898 -3.024700 -23.312599
lowerneck -8.056820 1.032060 2.700150
lhand -8.269840 29.071199
ltibia 54.041901
head 2.832630 0.621667 0.043728
rwrist 11.113900
lfingers 7.125020
rtoes 0.031254
lowerback 3.613050 -1.053730 5.371320
rfingers 7.125020
lclavicle 0.000000 0.000000
upperneck 4.441210 1.022570 1.433550
rfemur -17.162100 -20.292900 28.364901
thorax 0.860923 -0.461442 -4.516730
rclavicle 0.000000 0.000000
rtibia 36.946899
lfoot 26.123400 21.841000
lhumerus -47.899200 25.562201 6.727600
rthumb 9.269790 -57.743900
root 2.847960 18.807100 13.956700 193.186005 45.986401 -176.895004
ltoes 35.613499
lfemur -75.759003 17.194599 -24.385300
37
upperback 8.028980 -3.398150 -3.519170
rfoot -29.816799 -20.591600
lradius 13.032900
lthumb 15.510100 51.603100
rradius 27.260900
lwrist -33.558498
rhand -12.998300 -26.510099
rhumerus 18.522100 3.648980 -45.642101
lowerneck -3.771820 3.338640 4.660210
lhand -10.491700 22.205200
ltibia 59.700699
head 4.601370 2.450840 -1.277450
rwrist -13.451200
lfingers 7.125020
rtoes 5.804530
lowerback 5.469290 -3.062810 3.937210
rfingers 7.125020
lclavicle -0.000000 0.000000
upperneck 12.737000 4.662430 -2.479290
rfemur -28.101200 -12.036200 28.622900
thorax 4.853140 -1.170630 -5.820970
rclavicle -0.000000 0.000000
rtibia 42.654800
lfoot 38.688400 27.241199
lhumerus 33.159302 52.671398 61.735802
rthumb 13.094800 -56.078999
root 1.530480 18.845501 15.507200 192.414001 52.286900 -179.173004
ltoes 43.561699
lfemur -101.642998 20.061300 -36.036400
38
upperback 9.706160 -5.874670 -3.206710
rfoot -30.679399 -18.840300
lradius 11.519700
lthumb 15.027200 49.025200
rradius 34.520401
lwrist -33.690399
rhand -11.777300 -26.630199
rhumerus 51.320202 22.108101 -59.420700
lowerneck -0.491340 6.060420 4.020980
lhand -10.993000 19.590599
ltibia 59.569000
head 4.702890 4.486800 -1.240550
rwrist -24.282301
lfingers 7.125020
rtoes 5.453400
lowerback 3.397440 -4.929570 2.787330
rfingers 7.125020
lclavicle 0.000000 -0.000000
upperneck 14.341100 8.813500 -3.199050
rfemur -29.987200 -15.254000 32.236099
thorax 7.664890 -2.331190 -5.064140
rclavicle 0.000000 -0.000000
rtibia 46.978802
lfoot 39.277802 27.080099
lhumerus 66.613602 30.410700 93.072800
rthumb 14.271600 -56.119801
root 1.435590 18.523399 15.859000 193.899002 54.293701 -175.628006
ltoes 43.629501
lfemur -101.855003 24.029800 -37.131699
